<?xml version="1.0" encoding="utf-8"?>
<svg width="328" height="328" viewBox="0 0 328 328"
		 xmlns="http://www.w3.org/2000/svg" xmlns:xlink="http://www.w3.org/1999/xlink" xmlns:ev="http://www.w3.org/2001/xml-events">
<rect x="0" y="0" width="328" height="328" fill="#ffffff"/>
<defs>
<rect id="p" width="8" height="8"/>
</defs>
<g fill="#000000">
<use xlink:href="#p" x="32" y="32"/>
<use xlink:href="#p" x="32" y="40"/>
<use xlink:href="#p" x="32" y="48"/>
<use xlink:href="#p" x="32" y="56"/>
<use xlink:href="#p" x="32" y="64"/>
<use xlink:href="#p" x="32" y="72"/>
<use xlink:href="#p" x="32" y="80"/>
<use xlink:href="#p" x="32" y="96"/>
<use xlink:href="#p" x="32" y="112"/>
<use xlink:href="#p" x="32" y="120"/>
<use xlink:href="#p" x="32" y="128"/>
<use xlink:href="#p" x="32" y="160"/>
<use xlink:href="#p" x="32" y="168"/>
<use xlink:href="#p" x="32" y="192"/>
<use xlink:href="#p" x="32" y="240"/>
<use xlink:href="#p" x="32" y="248"/>
<use xlink:href="#p" x="32" y="256"/>
<use xlink:href="#p" x="32" y="264"/>
<use xlink:href="#p" x="32" y="272"/>
<use xlink:href="#p" x="32" y="280"/>
<use xlink:href="#p" x="32" y="288"/>
<use xlink:href="#p" x="40" y="32"/>
<use xlink:href="#p" x="40" y="80"/>
<use xlink:href="#p" x="40" y="96"/>
<use xlink:href="#p" x="40" y="104"/>
<use xlink:href="#p" x="40" y="112"/>
<use xlink:href="#p" x="40" y="120"/>
<use xlink:href="#p" x="40" y="128"/>
<use xlink:href="#p" x="40" y="136"/>
<use xlink:href="#p" x="40" y="192"/>
<use xlink:href="#p" x="40" y="200"/>
<use xlink:href="#p" x="40" y="208"/>
<use xlink:href="#p" x="40" y="216"/>
<use xlink:href="#p" x="40" y="224"/>
<use xlink:href="#p" x="40" y="240"/>
<use xlink:href="#p" x="40" y="288"/>
<use xlink:href="#p" x="48" y="32"/>
<use xlink:href="#p" x="48" y="48"/>
<use xlink:href="#p" x="48" y="56"/>
<use xlink:href="#p" x="48" y="64"/>
<use xlink:href="#p" x="48" y="80"/>
<use xlink:href="#p" x="48" y="96"/>
<use xlink:href="#p" x="48" y="120"/>
<use xlink:href="#p" x="48" y="136"/>
<use xlink:href="#p" x="48" y="152"/>
<use xlink:href="#p" x="48" y="160"/>
<use xlink:href="#p" x="48" y="168"/>
<use xlink:href="#p" x="48" y="176"/>
<use xlink:href="#p" x="48" y="192"/>
<use xlink:href="#p" x="48" y="200"/>
<use xlink:href="#p" x="48" y="216"/>
<use xlink:href="#p" x="48" y="224"/>
<use xlink:href="#p" x="48" y="240"/>
<use xlink:href="#p" x="48" y="256"/>
<use xlink:href="#p" x="48" y="264"/>
<use xlink:href="#p" x="48" y="272"/>
<use xlink:href="#p" x="48" y="288"/>
<use xlink:href="#p" x="56" y="32"/>
<use xlink:href="#p" x="56" y="48"/>
<use xlink:href="#p" x="56" y="56"/>
<use xlink:href="#p" x="56" y="64"/>
<use xlink:href="#p" x="56" y="80"/>
<use xlink:href="#p" x="56" y="96"/>
<use xlink:href="#p" x="56" y="104"/>
<use xlink:href="#p" x="56" y="128"/>
<use xlink:href="#p" x="56" y="160"/>
<use xlink:href="#p" x="56" y="168"/>
<use xlink:href="#p" x="56" y="184"/>
<use xlink:href="#p" x="56" y="200"/>
<use xlink:href="#p" x="56" y="208"/>
<use xlink:href="#p" x="56" y="216"/>
<use xlink:href="#p" x="56" y="224"/>
<use xlink:href="#p" x="56" y="240"/>
<use xlink:href="#p" x="56" y="256"/>
<use xlink:href="#p" x="56" y="264"/>
<use xlink:href="#p" x="56" y="272"/>
<use xlink:href="#p" x="56" y="288"/>
<use xlink:href="#p" x="64" y="32"/>
<use xlink:href="#p" x="64" y="48"/>
<use xlink:href="#p" x="64" y="56"/>
<use xlink:href="#p" x="64" y="64"/>
<use xlink:href="#p" x="64" y="80"/>
<use xlink:href="#p" x="64" y="96"/>
<use xlink:href="#p" x="64" y="104"/>
<use xlink:href="#p" x="64" y="144"/>
<use xlink:href="#p" x="64" y="152"/>
<use xlink:href="#p" x="64" y="160"/>
<use xlink:href="#p" x="64" y="168"/>
<use xlink:href="#p" x="64" y="192"/>
<use xlink:href="#p" x="64" y="240"/>
<use xlink:href="#p" x="64" y="256"/>
<use xlink:href="#p" x="64" y="264"/>
<use xlink:href="#p" x="64" y="272"/>
<use xlink:href="#p" x="64" y="288"/>
<use xlink:href="#p" x="72" y="32"/>
<use xlink:href="#p" x="72" y="80"/>
<use xlink:href="#p" x="72" y="120"/>
<use xlink:href="#p" x="72" y="128"/>
<use xlink:href="#p" x="72" y="136"/>
<use xlink:href="#p" x="72" y="160"/>
<use xlink:href="#p" x="72" y="192"/>
<use xlink:href="#p" x="72" y="216"/>
<use xlink:href="#p" x="72" y="240"/>
<use xlink:href="#p" x="72" y="288"/>
<use xlink:href="#p" x="80" y="32"/>
<use xlink:href="#p" x="80" y="40"/>
<use xlink:href="#p" x="80" y="48"/>
<use xlink:href="#p" x="80" y="56"/>
<use xlink:href="#p" x="80" y="64"/>
<use xlink:href="#p" x="80" y="72"/>
<use xlink:href="#p" x="80" y="80"/>
<use xlink:href="#p" x="80" y="96"/>
<use xlink:href="#p" x="80" y="112"/>
<use xlink:href="#p" x="80" y="128"/>
<use xlink:href="#p" x="80" y="144"/>
<use xlink:href="#p" x="80" y="160"/>
<use xlink:href="#p" x="80" y="176"/>
<use xlink:href="#p" x="80" y="192"/>
<use xlink:href="#p" x="80" y="208"/>
<use xlink:href="#p" x="80" y="224"/>
<use xlink:href="#p" x="80" y="240"/>
<use xlink:href="#p" x="80" y="248"/>
<use xlink:href="#p" x="80" y="256"/>
<use xlink:href="#p" x="80" y="264"/>
<use xlink:href="#p" x="80" y="272"/>
<use xlink:href="#p" x="80" y="280"/>
<use xlink:href="#p" x="80" y="288"/>
<use xlink:href="#p" x="88" y="96"/>
<use xlink:href="#p" x="88" y="104"/>
<use xlink:href="#p" x="88" y="128"/>
<use xlink:href="#p" x="88" y="136"/>
<use xlink:href="#p" x="88" y="144"/>
<use xlink:href="#p" x="88" y="152"/>
<use xlink:href="#p" x="88" y="160"/>
<use xlink:href="#p" x="88" y="168"/>
<use xlink:href="#p" x="88" y="176"/>
<use xlink:href="#p" x="88" y="184"/>
<use xlink:href="#p" x="88" y="192"/>
<use xlink:href="#p" x="88" y="200"/>
<use xlink:href="#p" x="88" y="224"/>
<use xlink:href="#p" x="96" y="40"/>
<use xlink:href="#p" x="96" y="56"/>
<use xlink:href="#p" x="96" y="72"/>
<use xlink:href="#p" x="96" y="80"/>
<use xlink:href="#p" x="96" y="96"/>
<use xlink:href="#p" x="96" y="104"/>
<use xlink:href="#p" x="96" y="120"/>
<use xlink:href="#p" x="96" y="128"/>
<use xlink:href="#p" x="96" y="136"/>
<use xlink:href="#p" x="96" y="160"/>
<use xlink:href="#p" x="96" y="176"/>
<use xlink:href="#p" x="96" y="184"/>
<use xlink:href="#p" x="96" y="208"/>
<use xlink:href="#p" x="96" y="216"/>
<use xlink:href="#p" x="96" y="232"/>
<use xlink:href="#p" x="96" y="240"/>
<use xlink:href="#p" x="96" y="256"/>
<use xlink:href="#p" x="96" y="264"/>
<use xlink:href="#p" x="96" y="272"/>
<use xlink:href="#p" x="96" y="280"/>
<use xlink:href="#p" x="96" y="288"/>
<use xlink:href="#p" x="104" y="32"/>
<use xlink:href="#p" x="104" y="40"/>
<use xlink:href="#p" x="104" y="48"/>
<use xlink:href="#p" x="104" y="56"/>
<use xlink:href="#p" x="104" y="96"/>
<use xlink:href="#p" x="104" y="104"/>
<use xlink:href="#p" x="104" y="112"/>
<use xlink:href="#p" x="104" y="120"/>
<use xlink:href="#p" x="104" y="128"/>
<use xlink:href="#p" x="104" y="136"/>
<use xlink:href="#p" x="104" y="144"/>
<use xlink:href="#p" x="104" y="152"/>
<use xlink:href="#p" x="104" y="176"/>
<use xlink:href="#p" x="104" y="184"/>
<use xlink:href="#p" x="104" y="192"/>
<use xlink:href="#p" x="104" y="208"/>
<use xlink:href="#p" x="104" y="216"/>
<use xlink:href="#p" x="104" y="224"/>
<use xlink:href="#p" x="104" y="232"/>
<use xlink:href="#p" x="104" y="240"/>
<use xlink:href="#p" x="104" y="248"/>
<use xlink:href="#p" x="104" y="256"/>
<use xlink:href="#p" x="104" y="272"/>
<use xlink:href="#p" x="104" y="280"/>
<use xlink:href="#p" x="112" y="48"/>
<use xlink:href="#p" x="112" y="64"/>
<use xlink:href="#p" x="112" y="72"/>
<use xlink:href="#p" x="112" y="80"/>
<use xlink:href="#p" x="112" y="96"/>
<use xlink:href="#p" x="112" y="120"/>
<use xlink:href="#p" x="112" y="136"/>
<use xlink:href="#p" x="112" y="168"/>
<use xlink:href="#p" x="112" y="176"/>
<use xlink:href="#p" x="112" y="192"/>
<use xlink:href="#p" x="112" y="208"/>
<use xlink:href="#p" x="112" y="216"/>
<use xlink:href="#p" x="112" y="240"/>
<use xlink:href="#p" x="112" y="248"/>
<use xlink:href="#p" x="112" y="272"/>
<use xlink:href="#p" x="112" y="280"/>
<use xlink:href="#p" x="112" y="288"/>
<use xlink:href="#p" x="120" y="40"/>
<use xlink:href="#p" x="120" y="48"/>
<use xlink:href="#p" x="120" y="56"/>
<use xlink:href="#p" x="120" y="112"/>
<use xlink:href="#p" x="120" y="120"/>
<use xlink:href="#p" x="120" y="128"/>
<use xlink:href="#p" x="120" y="176"/>
<use xlink:href="#p" x="120" y="184"/>
<use xlink:href="#p" x="120" y="192"/>
<use xlink:href="#p" x="120" y="240"/>
<use xlink:href="#p" x="120" y="248"/>
<use xlink:href="#p" x="120" y="256"/>
<use xlink:href="#p" x="128" y="40"/>
<use xlink:href="#p" x="128" y="64"/>
<use xlink:href="#p" x="128" y="80"/>
<use xlink:href="#p" x="128" y="88"/>
<use xlink:href="#p" x="128" y="96"/>
<use xlink:href="#p" x="128" y="112"/>
<use xlink:href="#p" x="128" y="136"/>
<use xlink:href="#p" x="128" y="152"/>
<use xlink:href="#p" x="128" y="160"/>
<use xlink:href="#p" x="128" y="176"/>
<use xlink:href="#p" x="128" y="200"/>
<use xlink:href="#p" x="128" y="216"/>
<use xlink:href="#p" x="128" y="224"/>
<use xlink:href="#p" x="128" y="240"/>
<use xlink:href="#p" x="128" y="264"/>
<use xlink:href="#p" x="128" y="280"/>
<use xlink:href="#p" x="128" y="288"/>
<use xlink:href="#p" x="136" y="64"/>
<use xlink:href="#p" x="136" y="72"/>
<use xlink:href="#p" x="136" y="88"/>
<use xlink:href="#p" x="136" y="136"/>
<use xlink:href="#p" x="136" y="144"/>
<use xlink:href="#p" x="136" y="152"/>
<use xlink:href="#p" x="136" y="200"/>
<use xlink:href="#p" x="136" y="208"/>
<use xlink:href="#p" x="136" y="216"/>
<use xlink:href="#p" x="136" y="264"/>
<use xlink:href="#p" x="136" y="272"/>
<use xlink:href="#p" x="136" y="280"/>
<use xlink:href="#p" x="144" y="48"/>
<use xlink:href="#p" x="144" y="64"/>
<use xlink:href="#p" x="144" y="72"/>
<use xlink:href="#p" x="144" y="80"/>
<use xlink:href="#p" x="144" y="96"/>
<use xlink:href="#p" x="144" y="120"/>
<use xlink:href="#p" x="144" y="136"/>
<use xlink:href="#p" x="144" y="144"/>
<use xlink:href="#p" x="144" y="160"/>
<use xlink:href="#p" x="144" y="184"/>
<use xlink:href="#p" x="144" y="200"/>
<use xlink:href="#p" x="144" y="208"/>
<use xlink:href="#p" x="144" y="224"/>
<use xlink:href="#p" x="144" y="248"/>
<use xlink:href="#p" x="144" y="264"/>
<use xlink:href="#p" x="144" y="272"/>
<use xlink:href="#p" x="144" y="288"/>
<use xlink:href="#p" x="152" y="32"/>
<use xlink:href="#p" x="152" y="64"/>
<use xlink:href="#p" x="152" y="72"/>
<use xlink:href="#p" x="152" y="88"/>
<use xlink:href="#p" x="152" y="96"/>
<use xlink:href="#p" x="152" y="104"/>
<use xlink:href="#p" x="152" y="136"/>
<use xlink:href="#p" x="152" y="144"/>
<use xlink:href="#p" x="152" y="152"/>
<use xlink:href="#p" x="152" y="160"/>
<use xlink:href="#p" x="152" y="168"/>
<use xlink:href="#p" x="152" y="200"/>
<use xlink:href="#p" x="152" y="208"/>
<use xlink:href="#p" x="152" y="216"/>
<use xlink:href="#p" x="152" y="224"/>
<use xlink:href="#p" x="152" y="240"/>
<use xlink:href="#p" x="152" y="256"/>
<use xlink:href="#p" x="152" y="272"/>
<use xlink:href="#p" x="160" y="32"/>
<use xlink:href="#p" x="160" y="48"/>
<use xlink:href="#p" x="160" y="56"/>
<use xlink:href="#p" x="160" y="72"/>
<use xlink:href="#p" x="160" y="80"/>
<use xlink:href="#p" x="160" y="104"/>
<use xlink:href="#p" x="160" y="120"/>
<use xlink:href="#p" x="160" y="128"/>
<use xlink:href="#p" x="160" y="144"/>
<use xlink:href="#p" x="160" y="168"/>
<use xlink:href="#p" x="160" y="184"/>
<use xlink:href="#p" x="160" y="208"/>
<use xlink:href="#p" x="160" y="216"/>
<use xlink:href="#p" x="160" y="232"/>
<use xlink:href="#p" x="160" y="240"/>
<use xlink:href="#p" x="160" y="264"/>
<use xlink:href="#p" x="160" y="280"/>
<use xlink:href="#p" x="168" y="32"/>
<use xlink:href="#p" x="168" y="56"/>
<use xlink:href="#p" x="168" y="96"/>
<use xlink:href="#p" x="168" y="104"/>
<use xlink:href="#p" x="168" y="128"/>
<use xlink:href="#p" x="168" y="144"/>
<use xlink:href="#p" x="168" y="160"/>
<use xlink:href="#p" x="168" y="176"/>
<use xlink:href="#p" x="168" y="192"/>
<use xlink:href="#p" x="168" y="224"/>
<use xlink:href="#p" x="168" y="240"/>
<use xlink:href="#p" x="168" y="256"/>
<use xlink:href="#p" x="168" y="288"/>
<use xlink:href="#p" x="176" y="32"/>
<use xlink:href="#p" x="176" y="64"/>
<use xlink:href="#p" x="176" y="80"/>
<use xlink:href="#p" x="176" y="88"/>
<use xlink:href="#p" x="176" y="104"/>
<use xlink:href="#p" x="176" y="112"/>
<use xlink:href="#p" x="176" y="136"/>
<use xlink:href="#p" x="176" y="152"/>
<use xlink:href="#p" x="176" y="168"/>
<use xlink:href="#p" x="176" y="184"/>
<use xlink:href="#p" x="176" y="200"/>
<use xlink:href="#p" x="176" y="240"/>
<use xlink:href="#p" x="176" y="248"/>
<use xlink:href="#p" x="176" y="264"/>
<use xlink:href="#p" x="184" y="32"/>
<use xlink:href="#p" x="184" y="56"/>
<use xlink:href="#p" x="184" y="64"/>
<use xlink:href="#p" x="184" y="88"/>
<use xlink:href="#p" x="184" y="104"/>
<use xlink:href="#p" x="184" y="120"/>
<use xlink:href="#p" x="184" y="136"/>
<use xlink:href="#p" x="184" y="152"/>
<use xlink:href="#p" x="184" y="160"/>
<use xlink:href="#p" x="184" y="168"/>
<use xlink:href="#p" x="184" y="200"/>
<use xlink:href="#p" x="184" y="232"/>
<use xlink:href="#p" x="184" y="248"/>
<use xlink:href="#p" x="184" y="264"/>
<use xlink:href="#p" x="192" y="64"/>
<use xlink:href="#p" x="192" y="72"/>
<use xlink:href="#p" x="192" y="80"/>
<use xlink:href="#p" x="192" y="104"/>
<use xlink:href="#p" x="192" y="128"/>
<use xlink:href="#p" x="192" y="136"/>
<use xlink:href="#p" x="192" y="144"/>
<use xlink:href="#p" x="192" y="152"/>
<use xlink:href="#p" x="192" y="168"/>
<use xlink:href="#p" x="192" y="192"/>
<use xlink:href="#p" x="192" y="200"/>
<use xlink:href="#p" x="192" y="224"/>
<use xlink:href="#p" x="192" y="256"/>
<use xlink:href="#p" x="192" y="272"/>
<use xlink:href="#p" x="192" y="280"/>
<use xlink:href="#p" x="200" y="32"/>
<use xlink:href="#p" x="200" y="40"/>
<use xlink:href="#p" x="200" y="48"/>
<use xlink:href="#p" x="200" y="72"/>
<use xlink:href="#p" x="200" y="88"/>
<use xlink:href="#p" x="200" y="104"/>
<use xlink:href="#p" x="200" y="112"/>
<use xlink:href="#p" x="200" y="120"/>
<use xlink:href="#p" x="200" y="144"/>
<use xlink:href="#p" x="200" y="152"/>
<use xlink:href="#p" x="200" y="184"/>
<use xlink:href="#p" x="200" y="216"/>
<use xlink:href="#p" x="200" y="240"/>
<use xlink:href="#p" x="200" y="248"/>
<use xlink:href="#p" x="200" y="280"/>
<use xlink:href="#p" x="208" y="40"/>
<use xlink:href="#p" x="208" y="48"/>
<use xlink:href="#p" x="208" y="56"/>
<use xlink:href="#p" x="208" y="64"/>
<use xlink:href="#p" x="208" y="80"/>
<use xlink:href="#p" x="208" y="96"/>
<use xlink:href="#p" x="208" y="104"/>
<use xlink:href="#p" x="208" y="112"/>
<use xlink:href="#p" x="208" y="136"/>
<use xlink:href="#p" x="208" y="144"/>
<use xlink:href="#p" x="208" y="152"/>
<use xlink:href="#p" x="208" y="160"/>
<use xlink:href="#p" x="208" y="192"/>
<use xlink:href="#p" x="208" y="208"/>
<use xlink:href="#p" x="208" y="216"/>
<use xlink:href="#p" x="208" y="224"/>
<use xlink:href="#p" x="208" y="248"/>
<use xlink:href="#p" x="208" y="256"/>
<use xlink:href="#p" x="208" y="272"/>
<use xlink:href="#p" x="216" y="32"/>
<use xlink:href="#p" x="216" y="64"/>
<use xlink:href="#p" x="216" y="88"/>
<use xlink:href="#p" x="216" y="96"/>
<use xlink:href="#p" x="216" y="104"/>
<use xlink:href="#p" x="216" y="120"/>
<use xlink:href="#p" x="216" y="136"/>
<use xlink:href="#p" x="216" y="160"/>
<use xlink:href="#p" x="216" y="168"/>
<use xlink:href="#p" x="216" y="192"/>
<use xlink:href="#p" x="216" y="200"/>
<use xlink:href="#p" x="216" y="224"/>
<use xlink:href="#p" x="216" y="232"/>
<use xlink:href="#p" x="216" y="240"/>
<use xlink:href="#p" x="216" y="264"/>
<use xlink:href="#p" x="216" y="280"/>
<use xlink:href="#p" x="224" y="40"/>
<use xlink:href="#p" x="224" y="80"/>
<use xlink:href="#p" x="224" y="104"/>
<use xlink:href="#p" x="224" y="112"/>
<use xlink:href="#p" x="224" y="136"/>
<use xlink:href="#p" x="224" y="144"/>
<use xlink:href="#p" x="224" y="152"/>
<use xlink:href="#p" x="224" y="168"/>
<use xlink:href="#p" x="224" y="176"/>
<use xlink:href="#p" x="224" y="184"/>
<use xlink:href="#p" x="224" y="200"/>
<use xlink:href="#p" x="224" y="208"/>
<use xlink:href="#p" x="224" y="216"/>
<use xlink:href="#p" x="224" y="224"/>
<use xlink:href="#p" x="224" y="232"/>
<use xlink:href="#p" x="224" y="240"/>
<use xlink:href="#p" x="224" y="248"/>
<use xlink:href="#p" x="224" y="256"/>
<use xlink:href="#p" x="224" y="272"/>
<use xlink:href="#p" x="224" y="288"/>
<use xlink:href="#p" x="232" y="96"/>
<use xlink:href="#p" x="232" y="104"/>
<use xlink:href="#p" x="232" y="112"/>
<use xlink:href="#p" x="232" y="136"/>
<use xlink:href="#p" x="232" y="152"/>
<use xlink:href="#p" x="232" y="168"/>
<use xlink:href="#p" x="232" y="176"/>
<use xlink:href="#p" x="232" y="184"/>
<use xlink:href="#p" x="232" y="200"/>
<use xlink:href="#p" x="232" y="208"/>
<use xlink:href="#p" x="232" y="216"/>
<use xlink:href="#p" x="232" y="224"/>
<use xlink:href="#p" x="232" y="256"/>
<use xlink:href="#p" x="232" y="272"/>
<use xlink:href="#p" x="240" y="32"/>
<use xlink:href="#p" x="240" y="40"/>
<use xlink:href="#p" x="240" y="48"/>
<use xlink:href="#p" x="240" y="56"/>
<use xlink:href="#p" x="240" y="64"/>
<use xlink:href="#p" x="240" y="72"/>
<use xlink:href="#p" x="240" y="80"/>
<use xlink:href="#p" x="240" y="104"/>
<use xlink:href="#p" x="240" y="136"/>
<use xlink:href="#p" x="240" y="168"/>
<use xlink:href="#p" x="240" y="200"/>
<use xlink:href="#p" x="240" y="224"/>
<use xlink:href="#p" x="240" y="240"/>
<use xlink:href="#p" x="240" y="256"/>
<use xlink:href="#p" x="240" y="272"/>
<use xlink:href="#p" x="240" y="288"/>
<use xlink:href="#p" x="248" y="32"/>
<use xlink:href="#p" x="248" y="80"/>
<use xlink:href="#p" x="248" y="96"/>
<use xlink:href="#p" x="248" y="104"/>
<use xlink:href="#p" x="248" y="120"/>
<use xlink:href="#p" x="248" y="136"/>
<use xlink:href="#p" x="248" y="160"/>
<use xlink:href="#p" x="248" y="168"/>
<use xlink:href="#p" x="248" y="192"/>
<use xlink:href="#p" x="248" y="224"/>
<use xlink:href="#p" x="248" y="256"/>
<use xlink:href="#p" x="248" y="264"/>
<use xlink:href="#p" x="248" y="280"/>
<use xlink:href="#p" x="256" y="32"/>
<use xlink:href="#p" x="256" y="48"/>
<use xlink:href="#p" x="256" y="56"/>
<use xlink:href="#p" x="256" y="64"/>
<use xlink:href="#p" x="256" y="80"/>
<use xlink:href="#p" x="256" y="128"/>
<use xlink:href="#p" x="256" y="144"/>
<use xlink:href="#p" x="256" y="152"/>
<use xlink:href="#p" x="256" y="160"/>
<use xlink:href="#p" x="256" y="192"/>
<use xlink:href="#p" x="256" y="216"/>
<use xlink:href="#p" x="256" y="224"/>
<use xlink:href="#p" x="256" y="232"/>
<use xlink:href="#p" x="256" y="240"/>
<use xlink:href="#p" x="256" y="248"/>
<use xlink:href="#p" x="256" y="256"/>
<use xlink:href="#p" x="256" y="264"/>
<use xlink:href="#p" x="256" y="280"/>
<use xlink:href="#p" x="256" y="288"/>
<use xlink:href="#p" x="264" y="32"/>
<use xlink:href="#p" x="264" y="48"/>
<use xlink:href="#p" x="264" y="56"/>
<use xlink:href="#p" x="264" y="64"/>
<use xlink:href="#p" x="264" y="80"/>
<use xlink:href="#p" x="264" y="96"/>
<use xlink:href="#p" x="264" y="112"/>
<use xlink:href="#p" x="264" y="128"/>
<use xlink:href="#p" x="264" y="168"/>
<use xlink:href="#p" x="264" y="176"/>
<use xlink:href="#p" x="264" y="200"/>
<use xlink:href="#p" x="264" y="208"/>
<use xlink:href="#p" x="264" y="216"/>
<use xlink:href="#p" x="264" y="224"/>
<use xlink:href="#p" x="264" y="232"/>
<use xlink:href="#p" x="264" y="240"/>
<use xlink:href="#p" x="264" y="248"/>
<use xlink:href="#p" x="264" y="272"/>
<use xlink:href="#p" x="272" y="32"/>
<use xlink:href="#p" x="272" y="48"/>
<use xlink:href="#p" x="272" y="56"/>
<use xlink:href="#p" x="272" y="64"/>
<use xlink:href="#p" x="272" y="80"/>
<use xlink:href="#p" x="272" y="104"/>
<use xlink:href="#p" x="272" y="120"/>
<use xlink:href="#p" x="272" y="152"/>
<use xlink:href="#p" x="272" y="184"/>
<use xlink:href="#p" x="272" y="216"/>
<use xlink:href="#p" x="272" y="232"/>
<use xlink:href="#p" x="272" y="248"/>
<use xlink:href="#p" x="272" y="264"/>
<use xlink:href="#p" x="272" y="272"/>
<use xlink:href="#p" x="272" y="280"/>
<use xlink:href="#p" x="280" y="32"/>
<use xlink:href="#p" x="280" y="80"/>
<use xlink:href="#p" x="280" y="96"/>
<use xlink:href="#p" x="280" y="104"/>
<use xlink:href="#p" x="280" y="112"/>
<use xlink:href="#p" x="280" y="136"/>
<use xlink:href="#p" x="280" y="144"/>
<use xlink:href="#p" x="280" y="160"/>
<use xlink:href="#p" x="280" y="168"/>
<use xlink:href="#p" x="280" y="176"/>
<use xlink:href="#p" x="280" y="192"/>
<use xlink:href="#p" x="280" y="200"/>
<use xlink:href="#p" x="280" y="208"/>
<use xlink:href="#p" x="280" y="240"/>
<use xlink:href="#p" x="280" y="256"/>
<use xlink:href="#p" x="280" y="264"/>
<use xlink:href="#p" x="280" y="288"/>
<use xlink:href="#p" x="288" y="32"/>
<use xlink:href="#p" x="288" y="40"/>
<use xlink:href="#p" x="288" y="48"/>
<use xlink:href="#p" x="288" y="56"/>
<use xlink:href="#p" x="288" y="64"/>
<use xlink:href="#p" x="288" y="72"/>
<use xlink:href="#p" x="288" y="80"/>
<use xlink:href="#p" x="288" y="104"/>
<use xlink:href="#p" x="288" y="136"/>
<use xlink:href="#p" x="288" y="168"/>
<use xlink:href="#p" x="288" y="200"/>
<use xlink:href="#p" x="288" y="224"/>
<use xlink:href="#p" x="288" y="232"/>
<use xlink:href="#p" x="288" y="248"/>
<use xlink:href="#p" x="288" y="264"/>
</g>
</svg>