<?xml version="1.0" encoding="UTF-8" standalone="no"?>
<svg
   xmlns:dc="http://purl.org/dc/elements/1.1/"
   xmlns:cc="http://creativecommons.org/ns#"
   xmlns:rdf="http://www.w3.org/1999/02/22-rdf-syntax-ns#"
   xmlns:svg="http://www.w3.org/2000/svg"
   xmlns="http://www.w3.org/2000/svg"
   id="svg4"
   version="1.1"
   height="15"
   width="16"
   viewBox="0 0 16 15">
  <metadata
     id="metadata10">
    <rdf:RDF>
      <cc:Work
         rdf:about="">
        <dc:format>image/svg+xml</dc:format>
        <dc:type
           rdf:resource="http://purl.org/dc/dcmitype/StillImage" />
        <dc:title></dc:title>
      </cc:Work>
    </rdf:RDF>
  </metadata>
  <defs
     id="defs8" />
  <path
     style="fill:#4fc3f7;fill-opacity:1"
     id="path2"
     d="M15.01 3.316l-.478-.372a.365.365 0 0 0-.51.063L8.666 9.879a.32.32 0 0 1-.484.033l-.358-.325a.319.319 0 0 0-.484.032l-.378.483a.418.418 0 0 0 .036.541l1.32 1.266c.143.14.361.125.484-.033l6.272-8.048a.366.366 0 0 0-.064-.512zm-4.1 0l-.478-.372a.365.365 0 0 0-.51.063L4.566 9.879a.32.32 0 0 1-.484.033L1.891 7.769a.366.366 0 0 0-.515.006l-.423.433a.364.364 0 0 0 .006.514l3.258 3.185c.143.14.361.125.484-.033l6.272-8.048a.365.365 0 0 0-.063-.51z"
     fill="currentColor" />
</svg>
